<?xml version="1.0"?>
<svg xmlns="http://www.w3.org/2000/svg" xmlns:xlink="http://www.w3.org/1999/xlink" width="250" height="110.2"
	 viewBox="0 0 250 110.2" enable-background="new 0 0 250 110.2" xml:space="preserve">
<g>
	<g>
		<path fill="#D31D1B" d="M1.5,91.4h52.2c0.8,0,1.4-0.6,1.5-1.3l3-34.7l6.1,53.6c0.1,0.7,0.7,1.3,1.5,1.3c0.7,0,1.4-0.5,1.5-1.3
			l10.2-74.5l6,52c0.1,0.7,0.7,1.2,1.4,1.3c0.7,0.1,1.4-0.4,1.6-1.1L96,52.2l6.5,23.2c0.2,0.6,0.8,1.1,1.4,1.1h144.5
			c0.8,0,1.5-0.7,1.5-1.5c0-0.8-0.7-1.5-1.5-1.5H105.1l-7.7-27.2c-0.2-0.6-0.8-1.1-1.4-1.1c-0.7,0-1.3,0.4-1.4,1.1l-9,32.3
			l-6.5-56.2c-0.1-0.7-0.7-1.3-1.5-1.3c-0.7,0-1.4,0.5-1.5,1.3L65.9,96.8l-6.4-56.6c-0.1-0.7-0.7-1.3-1.5-1.3
			c-0.8,0-1.4,0.6-1.5,1.3l-4.2,48.2H1.5c-0.8,0-1.5,0.7-1.5,1.5C0,90.7,0.7,91.4,1.5,91.4"/>
	</g>
	<g>
		<path d="M153.7,36.9h14.7c0,0-0.6-18.1-20.6-18.1c-19.9,0-26.9,8.5-26.9,26.9c0,0,0.2,21.7,24.8,21.7c0,0,21.5,1.3,23.6-19.2
			h-15.2c0,0-1.8,7.4-8.7,7.3c0,0-8.8,0.2-8.8-11.4c0-11.6,4.9-13.2,9.2-13.2c4.2,0,7.2,2.5,7.5,5.3L153.7,36.9z"/>
		<path d="M192.3,3h-15.9v17.5h-6.1v13h6.1v19.4c0,0-1.5,14.7,13.5,14.1h11.8l-0.2-15.8H195c0,0-3.1-0.5-2.8-2.8l0.1-14.9l8.8-0.1
			L201,20.5h-8.7V3z"/>
		<rect x="207.3" y="20.3" width="15.9" height="46.4"/>
		<rect x="207.2" width="16.1" height="17.1"/>
	</g>
	<g>
		<path d="M132.1,84.7c0,0-0.1,0-0.1,0c-0.3-0.1-0.6-0.1-1-0.1c-0.4,0-0.8,0.1-1.2,0.2l0,0c-0.4,0.1-0.8,0.4-1.1,0.6v0
			c-0.3,0.3-0.6,0.6-0.7,1h0c-0.2,0.4-0.3,0.9-0.3,1.4c0,0.9,0.2,1.7,0.8,2.3c0.5,0.6,1.3,0.9,2.2,0.9c0.4,0,0.9-0.1,1.3-0.2
			c0.1,0,0.1-0.1,0.2-0.1V91h2.2v-0.5v-7.8h-2.2V84.7z M132.1,88.8c-0.2,0.1-0.3,0.2-0.5,0.2h0c-0.3,0.1-0.5,0.1-0.7,0.1
			c-0.2,0-0.4,0-0.5-0.1c-0.1-0.1-0.2-0.1-0.3-0.2c-0.1-0.2-0.3-0.5-0.3-1.1c0-0.5,0.1-0.9,0.3-1.1c0.2-0.2,0.5-0.3,1-0.3
			c0.2,0,0.4,0,0.6,0.1c0.1,0,0.2,0,0.3,0.1V88.8z M132.7,89.1C132.7,89.1,132.7,89.1,132.7,89.1L132.7,89.1L132.7,89.1z"/>
		<polygon points="132.7,89.1 132.7,89.1 132.7,89.1 		"/>
		<polygon points="163,91 165.2,91 165.2,90.4 165.2,84.7 163,84.7 		"/>
		<polygon points="162.9,84 165.2,84 165.2,83.5 165.2,82.6 165.2,82 162.9,82 		"/>
		<polygon points="120.4,91 126.9,91 126.9,90.4 126.9,89.6 126.9,89 122.6,89 122.6,87.6 126.9,87.6 126.9,85.7 122.6,85.7 
			122.6,84.9 126.9,84.9 126.9,83 120.4,83 		"/>
		<path d="M140,88.8c-0.2,0.1-0.3,0.2-0.5,0.3h0h0c-0.3,0.1-0.5,0.1-0.7,0.1c-0.3,0-0.4,0-0.5,0l0,0l-0.2-0.1h0v0
			c0-0.1-0.1-0.1-0.1-0.2c0-0.1,0-0.3,0-0.6v-3.5h-2.2v3.9c0,0.7,0.2,1.4,0.7,1.9l0,0c0.5,0.4,1.2,0.6,1.9,0.6
			c0.4,0,0.9-0.1,1.3-0.2c0.1,0,0.2-0.1,0.3-0.1V91h2.2v-0.5v-5.7H140V88.8z"/>
		<path d="M148.1,84.7L148.1,84.7c-0.4-0.1-0.8-0.1-1.2-0.1c-1,0-1.9,0.3-2.6,0.9c-0.7,0.6-1,1.4-1,2.4c0,0.5,0.1,1,0.3,1.4l0,0
			c0.2,0.4,0.4,0.8,0.8,1c0.3,0.3,0.7,0.5,1.2,0.6h0c0.4,0.1,0.9,0.2,1.4,0.2c0.4,0,0.8,0,1.1-0.1c0.3-0.1,0.7-0.2,1.1-0.3l0.3-0.1
			v-0.4v-1v-0.5h-0.6h-0.2l-0.1,0.1c-0.1,0-0.1,0.1-0.3,0.2h0c-0.1,0.1-0.2,0.1-0.4,0.2c-0.1,0.1-0.3,0.1-0.5,0.1h0
			c-0.2,0-0.4,0.1-0.5,0.1c-0.5,0-0.8-0.1-1-0.3c-0.2-0.2-0.3-0.5-0.3-1.1c0-0.6,0.1-0.9,0.3-1.1c0.2-0.2,0.5-0.3,1-0.3
			c0.3,0,0.5,0,0.8,0.1h0h0c0.3,0.1,0.6,0.2,0.9,0.4l0.1,0.1h0.2h0.6v-1.9l-0.3-0.1C148.8,84.9,148.5,84.8,148.1,84.7z"/>
		<path d="M155.6,85c-0.3-0.2-0.6-0.3-1-0.4c-0.4-0.1-0.8-0.1-1.3-0.1c-0.4,0-0.8,0-1.3,0.1c-0.4,0.1-0.7,0.1-1,0.2l-0.3,0.1v1.5
			h0.4h0.1l0.1,0c0.4-0.1,0.7-0.2,1.1-0.3h0c0.3-0.1,0.6-0.1,0.9-0.1c0.2,0,0.4,0,0.6,0h0c0.2,0,0.3,0.1,0.5,0.1l0,0
			c0.1,0.1,0.2,0.1,0.2,0.2c0,0,0,0.1,0.1,0.2c-0.5,0-1,0.1-1.5,0.1c-0.6,0.1-1.1,0.2-1.5,0.3h0c-0.4,0.2-0.8,0.4-1.1,0.7
			c-0.3,0.3-0.4,0.7-0.4,1.2c0,0.6,0.3,1.1,0.7,1.5l0,0c0.5,0.4,1.1,0.6,1.7,0.6c0.3,0,0.6,0,0.9-0.1v0c0.3-0.1,0.5-0.1,0.7-0.2l0,0
			c0.1-0.1,0.3-0.1,0.4-0.2v0v0.3h1.8v-0.3v-3.8c0-0.4-0.1-0.7-0.2-1C156.1,85.4,155.9,85.2,155.6,85z M154.7,89
			c-0.2,0.1-0.4,0.3-0.7,0.4v0c-0.3,0.1-0.6,0.2-0.9,0.2c-0.4,0-0.7-0.1-0.8-0.2c-0.1-0.1-0.2-0.2-0.2-0.4c0-0.2,0.1-0.3,0.2-0.4
			c0.1-0.1,0.4-0.2,0.6-0.3c0.2-0.1,0.6-0.1,1-0.1h0c0.3,0,0.6,0,0.8-0.1V89z M155.1,89.2L155.1,89.2L155.1,89.2
			C155.1,89.2,155.1,89.2,155.1,89.2z"/>
		<polygon points="155.1,89.2 155.1,89.2 155.1,89.2 		"/>
		<polygon points="153.6,90.9 153.6,90.9 153.6,90.9 		"/>
		<path d="M160,83.7v-0.5h-2.2v1.5h-0.1h-0.6v1.8h0.7v2.2c0,0.4,0,0.7,0.2,1c0.1,0.3,0.3,0.6,0.5,0.8c0.5,0.4,1.1,0.6,1.8,0.6
			c0.2,0,0.4,0,0.7-0.1l0,0c0.3,0,0.5-0.1,0.7-0.1l0.4-0.1v-0.4v-0.8V89h-0.6h-0.1l-0.1,0c0,0-0.2,0.1-0.3,0.1h0h0
			c-0.1,0-0.3,0-0.4,0c-0.3,0-0.4,0-0.4,0l-0.1-0.1l-0.1-0.2v0v0c0-0.1,0-0.3,0-0.6v-1.8h2.1v-1.8H160V83.7z"/>
		<path d="M172.3,85.3c-0.6-0.6-1.5-0.9-2.5-0.9c-1,0-1.8,0.3-2.5,0.9v0c-0.6,0.6-1,1.5-0.9,2.4c0,1,0.3,1.8,0.9,2.4
			c0.6,0.6,1.5,0.9,2.5,0.9c1,0,1.8-0.3,2.5-0.9h0c0.6-0.6,1-1.4,0.9-2.4C173.2,86.7,172.9,85.9,172.3,85.3z M170.7,88.8
			c-0.2,0.2-0.5,0.3-0.9,0.3c-0.4,0-0.7-0.1-0.9-0.3c-0.2-0.2-0.3-0.5-0.3-1.1c0-0.6,0.1-0.9,0.3-1.1v0c0.2-0.2,0.5-0.3,0.9-0.3
			c0.5,0,0.7,0.1,0.9,0.3c0.2,0.2,0.3,0.5,0.3,1.1C171,88.2,170.9,88.6,170.7,88.8L170.7,88.8z"/>
		<polygon points="172.3,85.3 172.3,85.3 172.3,85.3 		"/>
		<path d="M179.9,85.3c-0.5-0.5-1.1-0.6-1.8-0.6c-0.4,0-0.8,0.1-1.2,0.2v0c-0.1,0-0.1,0.1-0.2,0.1v-0.2h-2.1v6h2.1v-3.9
			c0.2-0.1,0.3-0.2,0.5-0.3v0h0c0.2-0.1,0.4-0.1,0.6-0.1c0.2,0,0.4,0,0.4,0.1h0l0,0c0.1,0,0.1,0.1,0.1,0.1l0,0l0,0
			c0,0,0,0.1,0.1,0.2v0c0,0.2,0,0.4,0,0.6v3.4h2.1v-0.5v-3.2C180.6,86.4,180.4,85.7,179.9,85.3L179.9,85.3z"/>
		<path d="M192.7,83c-0.5-0.1-1-0.1-1.6-0.1c-1.4,0-2.6,0.3-3.5,1.1c-0.9,0.7-1.4,1.8-1.4,3c0,0.7,0.1,1.3,0.4,1.8
			c0.2,0.5,0.6,1,1,1.3c0.4,0.3,1,0.6,1.6,0.8h0c0.6,0.2,1.2,0.2,1.9,0.2c0.5,0,1.1-0.1,1.7-0.2c0.6-0.1,1.1-0.3,1.6-0.5l0.4-0.1
			v-0.4v-3.5h-4.4v1.9h2.2V89c-0.1,0-0.3,0.1-0.5,0.1l0,0h0c-0.3,0-0.6,0.1-1,0.1c-0.9,0-1.5-0.2-1.9-0.6c-0.4-0.4-0.7-0.9-0.7-1.7
			c0-0.7,0.2-1.2,0.6-1.6c0.4-0.4,1-0.6,1.8-0.6c0.4,0,0.7,0,1,0.1h0c0.3,0.1,0.6,0.1,0.8,0.2h0c0.2,0.1,0.4,0.2,0.6,0.3h0
			c0.2,0.1,0.4,0.2,0.5,0.3l0.1,0.1h0.3h0.6v-2l-0.3-0.1C193.8,83.2,193.2,83.1,192.7,83z"/>
		<path d="M200.3,84.7L200.3,84.7c-0.1,0-0.3,0-0.4,0c-0.4,0-0.8,0.1-1.2,0.2c-0.1,0-0.2,0.1-0.3,0.2v-0.4h-2.2V91h2.2V87
			c0.2-0.1,0.3-0.2,0.5-0.3h0c0.2-0.1,0.5-0.1,0.7-0.1c0.2,0,0.3,0,0.5,0h0c0.1,0,0.2,0,0.4,0.1l0.1,0h0.1h0.6v-0.5v-0.9v-0.5
			l-0.5-0.1C200.5,84.7,200.4,84.7,200.3,84.7z"/>
		<path d="M207.1,85.4c-0.6-0.6-1.5-0.9-2.5-0.9c-1,0-1.8,0.3-2.5,0.9c-0.6,0.6-0.9,1.4-0.9,2.4c0,0.9,0.3,1.8,0.9,2.4
			c0.6,0.6,1.5,0.9,2.5,0.9c1,0,1.8-0.3,2.5-0.9c0.6-0.6,1-1.4,0.9-2.4C208.1,86.9,207.8,86,207.1,85.4L207.1,85.4z M205.6,88.9
			L205.6,88.9c-0.2,0.2-0.5,0.3-0.9,0.3c-0.5,0-0.7-0.1-0.9-0.3c-0.2-0.2-0.3-0.5-0.3-1.1c0-0.6,0.1-0.9,0.3-1.1
			c0.2-0.2,0.5-0.3,0.9-0.3c0.5,0,0.7,0.1,0.9,0.3v0h0c0.2,0.2,0.3,0.5,0.3,1.1C205.9,88.4,205.7,88.7,205.6,88.9z"/>
		<path d="M213.4,88.8c-0.2,0.1-0.3,0.2-0.5,0.3h0c-0.3,0.1-0.5,0.1-0.7,0.1c-0.3,0-0.4,0-0.5-0.1l-0.1-0.1h0v0
			c0-0.1-0.1-0.1-0.1-0.2c0-0.1,0-0.3,0-0.6v-3.5h-2.2v3.9c0,0.7,0.2,1.4,0.7,1.9h0c0.5,0.4,1.2,0.6,1.9,0.6c0.4,0,0.9-0.1,1.3-0.2
			c0.1,0,0.2-0.1,0.3-0.1V91h2.2v-0.5v-5.7h-2.2V88.8z"/>
		<path d="M223.7,87.8c0-0.9-0.2-1.7-0.8-2.3l0,0c-0.5-0.6-1.3-0.9-2.2-0.9c-0.5,0-0.9,0.1-1.3,0.2c-0.1,0-0.1,0.1-0.2,0.1v-0.2
			h-2.1v8.2h2.1v-1.9c0,0,0.1,0,0.1,0c0.3,0.1,0.6,0.1,1,0.1c0.4,0,0.9-0.1,1.2-0.2l0,0c0.4-0.1,0.7-0.4,1-0.6l0,0c0,0,0,0,0,0
			c0,0,0,0,0,0l0,0c0.3-0.3,0.6-0.6,0.7-1.1C223.6,88.7,223.7,88.2,223.7,87.8z M221.2,88.8c-0.2,0.2-0.5,0.3-1,0.3
			c-0.2,0-0.5,0-0.6,0c-0.1,0-0.2,0-0.3-0.1v-2.2c0.2-0.1,0.3-0.2,0.5-0.2c0.2-0.1,0.5-0.1,0.7-0.1c0.2,0,0.4,0,0.5,0.1
			c0.1,0,0.2,0.1,0.3,0.2c0.1,0.2,0.3,0.5,0.3,1.1C221.5,88.3,221.4,88.7,221.2,88.8z"/>
		<polygon points="222.9,85.4 222.9,85.4 222.9,85.4"/>
	</g>
</g>
</svg>
