<svg width="67" height="59" viewBox="0 0 67 59" fill="none" xmlns="http://www.w3.org/2000/svg">
<path d="M31.3301 0C32.5156 2.02052e-05 33.6529 0.471308 34.4912 1.30957C35.3292 2.14776 35.7997 3.28448 35.7998 4.46973C35.8071 4.88742 35.9452 5.2926 36.1943 5.62793C36.4436 5.96333 36.7924 6.21244 37.1904 6.33984C38.0913 6.65397 38.9727 7.02194 39.8301 7.44043C40.2021 7.63274 40.6256 7.70357 41.04 7.64258C41.4544 7.58155 41.8388 7.39107 42.1396 7.09961C42.9791 6.26429 44.1156 5.79595 45.2998 5.7959C46.484 5.7959 47.6205 6.26436 48.46 7.09961L51.4102 10.04C52.2424 10.8791 52.709 12.0135 52.709 13.1953C52.7089 14.377 52.2422 15.5106 51.4102 16.3496C51.2239 16.5392 51.0782 16.7629 50.9805 17.0068C50.9779 17.0071 50.9753 17.0075 50.9727 17.0078C51.0002 17.0048 51.0277 17 51.0557 17H54.0928C54.2941 17 54.4875 17.0803 54.6299 17.2227C54.7719 17.3649 54.8514 17.5578 54.8516 17.7588V23.0742H57.1299C58.1366 23.0743 59.1026 23.4737 59.8145 24.1855C60.5263 24.8974 60.9257 25.8634 60.9258 26.8701V28.3887H66.2412C66.4424 28.3888 66.6351 28.4691 66.7773 28.6113C66.9197 28.7537 67 28.9471 67 29.1484V32.1855C66.9999 32.3868 66.9196 32.5794 66.7773 32.7217C66.6351 32.864 66.4424 32.9442 66.2412 32.9443H60.9258V34.4629H66.2412C66.4424 34.463 66.6351 34.5433 66.7773 34.6855C66.9197 34.8279 67 35.0213 67 35.2227V38.2588C67 38.4602 66.9197 38.6535 66.7773 38.7959C66.6351 38.9382 66.4424 39.0184 66.2412 39.0186H60.9258V40.5371H66.2412C66.4424 40.5372 66.6351 40.6175 66.7773 40.7598C66.9196 40.9021 66.9999 41.0947 67 41.2959V44.333C67 44.5344 66.9197 44.7277 66.7773 44.8701C66.6351 45.0123 66.4424 45.0926 66.2412 45.0928H60.9258V46.6113C60.9257 47.6181 60.5263 48.584 59.8145 49.2959C59.1026 50.0078 58.1366 50.4072 57.1299 50.4072H54.8516V55.7227C54.8514 55.9237 54.7719 56.1165 54.6299 56.2588C54.4875 56.4011 54.2941 56.4814 54.0928 56.4814H51.0557C50.8543 56.4814 50.6609 56.4012 50.5186 56.2588C50.3764 56.1165 50.296 55.9238 50.2959 55.7227V50.4072H48.7773V55.7227C48.7772 55.9237 48.6978 56.1165 48.5557 56.2588C48.4133 56.4012 48.2199 56.4814 48.0186 56.4814H44.9814C44.7801 56.4814 44.5867 56.4012 44.4443 56.2588C44.3022 56.1165 44.2228 55.9237 44.2227 55.7227V50.4072H42.7041V55.7227C42.704 55.9238 42.6236 56.1165 42.4814 56.2588C42.3391 56.4012 42.1457 56.4814 41.9443 56.4814H38.9072C38.7059 56.4814 38.5125 56.4011 38.3701 56.2588C38.2281 56.1165 38.1486 55.9237 38.1484 55.7227V51.7959C37.8278 51.9234 37.5055 52.0466 37.1797 52.1602C36.7818 52.2876 36.4338 52.5368 36.1846 52.8721C35.9354 53.2074 35.7973 53.6126 35.79 54.0303C35.79 55.2157 35.3187 56.3522 34.4805 57.1904C33.6422 58.0287 32.5057 58.4999 31.3203 58.5H27.1602C25.9747 58.5 24.8373 58.0287 23.999 57.1904C23.161 56.3522 22.6905 55.2155 22.6904 54.0303C22.6831 53.6125 22.5442 53.2075 22.2949 52.8721C22.0456 52.5367 21.6978 52.2876 21.2998 52.1602C20.3988 51.8461 19.5176 51.4781 18.6602 51.0596C18.2881 50.8672 17.8647 50.7964 17.4502 50.8574C17.0358 50.9184 16.6505 51.1089 16.3496 51.4004C15.5115 52.2378 14.3752 52.7089 13.1904 52.709C12.0055 52.709 10.8684 52.238 10.0303 51.4004L7.08984 48.46C6.25756 47.6209 5.79102 46.4865 5.79102 45.3047C5.7911 44.123 6.25775 42.9894 7.08984 42.1504C7.38509 41.8499 7.57779 41.4634 7.64062 41.0469C7.70351 40.6304 7.63384 40.2043 7.44043 39.8301C7.02194 38.9727 6.65397 38.0913 6.33984 37.1904C6.21244 36.7924 5.96333 36.4436 5.62793 36.1943C5.2926 35.9452 4.88742 35.8071 4.46973 35.7998C3.28448 35.7997 2.14776 35.3292 1.30957 34.4912C0.471308 33.6529 2.02051e-05 32.5156 0 31.3301V27.1699C2.07104e-05 25.9845 0.471309 24.8471 1.30957 24.0088C2.14776 23.1708 3.28448 22.7003 4.46973 22.7002C4.88742 22.6929 5.2926 22.5548 5.62793 22.3057C5.96333 22.0564 6.21244 21.7076 6.33984 21.3096C6.65397 20.4087 7.02194 19.5273 7.44043 18.6699C7.63274 18.2979 7.70357 17.8744 7.64258 17.46C7.58155 17.0456 7.39107 16.6612 7.09961 16.3604C6.26429 15.5209 5.79595 14.3844 5.7959 13.2002C5.7959 12.016 6.26436 10.8795 7.09961 10.04L10.04 7.08984C10.8791 6.25756 12.0135 5.79102 13.1953 5.79102C14.377 5.7911 15.5106 6.25775 16.3496 7.08984C16.6502 7.38509 17.0366 7.57779 17.4531 7.64062C17.8696 7.70351 18.2957 7.63384 18.6699 7.44043C19.5273 7.02194 20.4087 6.65397 21.3096 6.33984C21.7076 6.21244 22.0564 5.96333 22.3057 5.62793C22.5548 5.2926 22.6929 4.88742 22.7002 4.46973C22.7003 3.28448 23.1708 2.14776 24.0088 1.30957C24.8471 0.471309 25.9845 2.07103e-05 27.1699 0H31.3301ZM27.25 2.46973C26.7197 2.46973 26.211 2.68067 25.8359 3.05566C25.4609 3.43067 25.2501 3.9394 25.25 4.46973C25.2262 5.40764 24.9112 6.31562 24.3486 7.06641C23.786 7.81705 23.0037 8.37406 22.1104 8.66016C21.2991 8.94064 20.5072 9.27478 19.7402 9.66016C18.9 10.0767 17.9508 10.2211 17.0244 10.0742C16.0982 9.92732 15.2405 9.496 14.5703 8.83984C14.1969 8.47634 13.6959 8.27344 13.1748 8.27344C12.6539 8.27349 12.1536 8.47652 11.7803 8.83984L8.84961 11.7695C8.48911 12.1424 8.28809 12.6415 8.28809 13.1602C8.28813 13.6787 8.48933 14.177 8.84961 14.5498C9.50831 15.2204 9.94212 16.0797 10.0908 17.0078C10.2396 17.936 10.0959 18.8877 9.67969 19.7305C9.29443 20.4972 8.96011 21.2886 8.67969 22.0996C8.37879 22.988 7.80954 23.7614 7.0498 24.3115C6.2902 24.8614 5.37818 25.1613 4.44043 25.1699C3.91 25.1699 3.40046 25.3808 3.02539 25.7559C2.65047 26.1309 2.44045 26.6397 2.44043 27.1699V31.3398C2.44043 31.8701 2.65053 32.3788 3.02539 32.7539C3.40046 33.129 3.91 33.3398 4.44043 33.3398C5.37814 33.3484 6.29022 33.6484 7.0498 34.1982C7.80954 34.7483 8.37879 35.5218 8.67969 36.4102C8.96018 37.2214 9.29429 38.0133 9.67969 38.7803C10.0963 39.6205 10.2416 40.5697 10.0947 41.4961C9.94779 42.4223 9.51645 43.2801 8.86035 43.9502C8.49692 44.3235 8.29304 44.8237 8.29297 45.3447C8.29297 45.8658 8.49685 46.3668 8.86035 46.7402L11.79 49.6699C12.1629 50.0303 12.6611 50.2323 13.1797 50.2324C13.6984 50.2324 14.1974 50.0304 14.5703 49.6699C15.4111 48.8371 16.5471 48.37 17.7305 48.3701C18.4236 48.3765 19.1071 48.5367 19.7305 48.8398C20.4972 49.2251 21.2886 49.5594 22.0996 49.8398C22.988 50.1407 23.7614 50.711 24.3115 51.4707C24.8614 52.2304 25.1614 53.1423 25.1699 54.0801C25.1699 54.6105 25.3808 55.1191 25.7559 55.4941C26.1309 55.8692 26.6396 56.0801 27.1699 56.0801H31.29C31.8204 56.0801 32.329 55.8692 32.7041 55.4941C33.0792 55.1191 33.29 54.6105 33.29 54.0801C33.2985 53.1423 33.5986 52.2304 34.1484 51.4707C34.4653 51.0331 34.8574 50.6599 35.3018 50.3633C34.5053 50.2428 33.762 49.8724 33.1855 49.2959C32.4737 48.584 32.0743 47.6181 32.0742 46.6113V45.0928H26.7588C26.5576 45.0926 26.3649 45.0123 26.2227 44.8701C26.0803 44.7277 26 44.5344 26 44.333V43.4199C23.3403 42.8098 20.9024 41.4648 18.9688 39.5312C16.9354 37.4978 15.5504 34.9073 14.9893 32.0869C14.4283 29.2664 14.7159 26.3424 15.8164 23.6855C16.9169 21.0287 18.7808 18.7579 21.1719 17.1602C23.563 15.5625 26.3742 14.71 29.25 14.71C32.4885 14.7121 35.615 15.7939 38.1484 17.7559V17.7588C38.1486 17.5578 38.2281 17.3649 38.3701 17.2227C38.5125 17.0803 38.7059 17 38.9072 17H41.9443C42.1457 17 42.3391 17.0803 42.4814 17.2227C42.6236 17.3649 42.704 17.5577 42.7041 17.7588V23.0742H44.2227V17.7588C44.2228 17.5577 44.3022 17.3649 44.4443 17.2227C44.5867 17.0803 44.7801 17 44.9814 17H48.0186C48.2199 17 48.4133 17.0803 48.5557 17.2227C48.5361 17.2031 48.5136 17.1871 48.4922 17.1699C48.4973 17.1316 48.4998 17.0929 48.5059 17.0547C48.6528 16.1284 49.084 15.2698 49.7402 14.5996C50.1035 14.2263 50.3066 13.726 50.3066 13.2051C50.3066 12.684 50.1037 12.183 49.7402 11.8096L46.8096 8.87988C46.4367 8.51955 45.9385 8.31836 45.4199 8.31836C44.9013 8.31838 44.4031 8.51952 44.0303 8.87988C43.3597 9.53858 42.5004 9.97239 41.5723 10.1211C40.6441 10.2699 39.6924 10.1261 38.8496 9.70996C38.0828 9.32469 37.2915 8.99039 36.4805 8.70996C35.5921 8.40909 34.8186 7.83972 34.2686 7.08008C33.7186 6.32036 33.4187 5.40764 33.4102 4.46973C33.4101 3.9394 33.1993 3.43067 32.8242 3.05566C32.4492 2.68065 31.9405 2.46977 31.4102 2.46973H27.25ZM39.667 54.9629H41.1855V50.4072H39.667V54.9629ZM45.7412 54.9629H47.2588V50.4072H45.7412V54.9629ZM51.8145 54.9629H53.333V50.4072H51.8145V54.9629ZM35.5781 50.3945C35.5827 50.3949 35.5872 50.3952 35.5918 50.3955C35.5872 50.3952 35.5827 50.3949 35.5781 50.3945ZM35.8701 24.5928C35.2661 24.5928 34.6869 24.8327 34.2598 25.2598C33.8327 25.6869 33.5928 26.2661 33.5928 26.8701V46.6113C33.5928 47.2153 33.8327 47.7946 34.2598 48.2217C34.6869 48.6488 35.2661 48.8886 35.8701 48.8887H57.1299C57.7339 48.8886 58.3131 48.6488 58.7402 48.2217C59.1673 47.7946 59.4072 47.2153 59.4072 46.6113V26.8701C59.4072 26.2661 59.1673 25.6869 58.7402 25.2598C58.3131 24.8327 57.7339 24.5928 57.1299 24.5928H35.8701ZM54.8516 26.1113C55.4557 26.1113 56.0357 26.3512 56.4629 26.7783C56.8899 27.2054 57.1298 27.7848 57.1299 28.3887V45.0928C57.1298 45.6967 56.8899 46.276 56.4629 46.7031C56.0357 47.1303 55.4557 47.3701 54.8516 47.3701H38.1484C37.5443 47.3701 36.9643 47.1303 36.5371 46.7031C36.1101 46.276 35.8702 45.6967 35.8701 45.0928V28.3887C35.8702 27.7848 36.1101 27.2054 36.5371 26.7783C36.9643 26.3512 37.5443 26.1113 38.1484 26.1113H54.8516ZM38.1484 27.6299C37.9472 27.6299 37.7537 27.7093 37.6113 27.8516C37.469 27.9939 37.3887 28.1874 37.3887 28.3887V45.0928C37.3887 45.2941 37.469 45.4875 37.6113 45.6299C37.7537 45.7721 37.9472 45.8516 38.1484 45.8516H54.8516C55.0528 45.8516 55.2463 45.7721 55.3887 45.6299C55.531 45.4875 55.6113 45.2941 55.6113 45.0928V28.3887C55.6113 28.1874 55.531 27.9939 55.3887 27.8516C55.2463 27.7093 55.0528 27.6299 54.8516 27.6299H38.1484ZM27.5186 43.5742H32.0742V42.0557H27.5186V43.5742ZM60.9258 43.5742H65.4814V42.0557H60.9258V43.5742ZM26.0127 41.1592C26.0042 41.2039 26 41.2496 26 41.2959C26 41.2497 26.0044 41.204 26.0127 41.1592ZM26.0469 41.0391C26.039 41.0604 26.0333 41.0825 26.0273 41.1045C26.0332 41.0824 26.0391 41.0605 26.0469 41.0391ZM26.1016 40.9229C26.0934 40.937 26.0853 40.9512 26.0781 40.9658C26.0853 40.9511 26.0935 40.9371 26.1016 40.9229ZM33.8418 18.1631C31.6493 17.2551 29.2367 17.0176 26.9092 17.4805C24.5814 17.9436 22.4428 19.0864 20.7646 20.7646C19.0864 22.4428 17.9436 24.5814 17.4805 26.9092C17.0176 29.2367 17.2551 31.6492 18.1631 33.8418C19.0714 36.0345 20.6097 37.9089 22.583 39.2275C23.6823 39.9621 24.8895 40.5052 26.1533 40.8428C26.1519 40.8447 26.1508 40.8467 26.1494 40.8486C26.1721 40.8178 26.1953 40.7872 26.2227 40.7598C26.3649 40.6175 26.5576 40.5372 26.7588 40.5371H32.0742V39.0186H26.7588C26.5576 39.0184 26.3649 38.9382 26.2227 38.7959C26.0803 38.6535 26 38.4602 26 38.2588V35.2227C26 35.0213 26.0803 34.8279 26.2227 34.6855C26.3649 34.5433 26.5576 34.463 26.7588 34.4629H32.0742V32.9443H26.7588C26.5576 32.9442 26.3649 32.864 26.2227 32.7217C26.0804 32.5794 26.0001 32.3868 26 32.1855V29.1484C26 28.9471 26.0803 28.7537 26.2227 28.6113C26.3649 28.4691 26.5576 28.3888 26.7588 28.3887H32.0742V26.8701C32.0743 25.8634 32.4737 24.8974 33.1855 24.1855C33.8974 23.4737 34.8634 23.0743 35.8701 23.0742H38.1484V21.1992C36.9603 19.886 35.4911 18.8463 33.8418 18.1631ZM27.5186 37.5H32.0742V35.9814H27.5186V37.5ZM60.9258 37.5H65.4814V35.9814H60.9258V37.5ZM27.5186 31.4258H32.0742V29.9072H27.5186V31.4258ZM60.9258 31.4258H65.4814V29.9072H60.9258V31.4258ZM39.667 23.0742H41.1855V18.5186H39.667V23.0742ZM45.7412 23.0742H47.2588V18.5186H45.7412V23.0742ZM48.7773 23.0742H50.2959V22.9775C50.1441 22.7124 50.0159 22.4329 49.9199 22.1396C49.6394 21.3285 49.3053 20.5364 48.9199 19.7695C48.8681 19.665 48.8207 19.5588 48.7773 19.4512V23.0742ZM51.8145 23.0742H53.333V18.5186H51.8145V23.0742ZM50.624 17.1348C50.5864 17.1604 50.5513 17.19 50.5186 17.2227C50.5512 17.19 50.5865 17.1607 50.624 17.1348ZM50.7383 17.0713C50.7242 17.0776 50.7109 17.0856 50.6973 17.0928C50.7109 17.0854 50.7242 17.0778 50.7383 17.0713ZM50.8594 17.0283C50.8521 17.0302 50.8451 17.033 50.8379 17.0352C50.8451 17.033 50.8521 17.0303 50.8594 17.0283Z" fill="black"/>
</svg>
